<svg xmlns="http://www.w3.org/2000/svg" viewBox="0 0 220 220" role="img" aria-labelledby="title desc">
  <title id="title">白と黒のユニフォーム</title>
  <desc id="desc">白地に黒い襟、袖口、裾と曲線のパイピングを配したシャツのイラスト</desc>
  <defs>
    <linearGradient id="whiteShade" x1="0" y1="0" x2="0" y2="1"><stop offset="0" stop-color="#ffffff"/><stop offset="1" stop-color="#dce5ed"/></linearGradient>
    <linearGradient id="blackShade" x1="0" y1="0" x2="0" y2="1"><stop offset="0" stop-color="#26303c"/><stop offset="1" stop-color="#05080d"/></linearGradient>
    <filter id="shadow" x="-25%" y="-20%" width="150%" height="160%"><feDropShadow dx="0" dy="4" stdDeviation="4" flood-color="#041526" flood-opacity=".32"/></filter>
  </defs>
  <g filter="url(#shadow)" stroke="#1c2732" stroke-width="3" stroke-linejoin="round">
    <path fill="url(#whiteShade)" d="M66 29 27 47 8 91l29 14 15-26 3 112c34 10 76 10 110 0l3-112 15 26 29-14-19-44-39-18-17-10H83z"/>
    <path fill="url(#blackShade)" d="M79 22c10-5 52-5 62 0l-5 25c-15 10-37 10-52 0z"/>
    <path fill="#f4f7fa" stroke="none" d="M88 27c10 4 34 4 44 0l-3 13c-11 6-27 6-38 0z"/>
    <path fill="none" stroke="#111820" stroke-width="4" d="M51 78c11-19 20-29 34-38M169 78c-11-19-20-29-34-38M51 78c8 34 10 75 4 113M169 78c-8 34-10 75-4 113"/>
    <path fill="url(#blackShade)" d="m8 91 7-17c7 10 16 18 29 24l-7 7zm204 0-7-17c-7 10-16 18-29 24l7 7z"/>
    <path fill="none" stroke="#080d13" stroke-width="7" d="M55 190c34 10 76 10 110 0"/>
    <path fill="none" stroke="#fff" stroke-width="2" opacity=".7" d="M70 183c27 5 53 5 80 0"/>
  </g>
</svg>
