<svg xmlns="http://www.w3.org/2000/svg" viewBox="0 0 220 220" role="img" aria-labelledby="title desc">
  <title id="title">白と青の襟付きユニフォーム</title>
  <desc id="desc">白地に、白い二本線が入った青い折り襟とV字の前立てを配したシャツのイラスト</desc>
  <defs>
    <linearGradient id="whiteShade" x1="0" y1="0" x2="0" y2="1"><stop offset="0" stop-color="#ffffff"/><stop offset="1" stop-color="#dfe8ef"/></linearGradient>
    <linearGradient id="blueShade" x1="0" y1="0" x2="0" y2="1"><stop offset="0" stop-color="#174aa5"/><stop offset="1" stop-color="#08256d"/></linearGradient>
    <filter id="shadow" x="-25%" y="-20%" width="150%" height="160%"><feDropShadow dx="0" dy="4" stdDeviation="4" flood-color="#041526" flood-opacity=".32"/></filter>
  </defs>
  <g filter="url(#shadow)" stroke="#506375" stroke-width="3" stroke-linejoin="round">
    <path fill="url(#whiteShade)" d="M66 29 27 47 8 91l29 14 15-26 3 112c34 10 76 10 110 0l3-112 15 26 29-14-19-44-39-18-17-10H83z"/>
    <path fill="url(#blueShade)" stroke="#061c57" d="M79 22c10-5 52-5 62 0l-4 28-27 25-27-25z"/>
    <path fill="#f4f7fa" stroke="none" d="M88 27c10 4 34 4 44 0l-3 14-19 20-19-20z"/>
    <path fill="url(#blueShade)" stroke="#061c57" d="M80 22 60 40l8 29 28-10-5-32zm60 0 20 18-8 29-28-10 5-32z"/>
    <path fill="none" stroke="#fff" stroke-width="4" d="m70 39 7 23m8-31 5 24m60-16-7 23m-8-31-5 24"/>
    <path fill="url(#blueShade)" stroke="#061c57" d="m96 58 14 13 14-13-14 22z"/>
    <path fill="none" stroke="#fff" stroke-width="3" opacity=".75" d="M69 184c27 5 55 5 82 0"/>
  </g>
</svg>
